<svg version="1.0" xmlns="http://www.w3.org/2000/svg" width="1706.667" height="1706.667" viewBox="0 0 1280 1280"><g fill="#fff"><path d="M603.5 1.1C386.7 13.9 192.4 134.2 84.6 322.3 40.3 399.5 13.1 484.1 3.6 574c-14.1 132.2 14.6 267.8 81 383.7 86.7 151.3 230.7 260.5 399.2 302.8 160.8 40.4 330.3 17.1 473.9-65.1 160.4-91.7 273.4-248.6 309.8-429.9 30.3-151.1 4.6-309.4-72.1-443.2C1098.3 152.7 928.9 36.5 736.5 7.5c-44.4-6.7-90.8-8.9-133-6.4zM692 55.5c59.3 5.6 113.8 18.8 168.3 40.6 19.3 7.8 57.1 26.3 75.2 36.9 86.9 51 156.4 120 209.5 208 18.5 30.5 41 80.6 53.3 118.5 47.7 146.3 35.3 306.1-34.3 444-31.8 62.9-66.7 110.2-119.1 161.1-58.3 56.6-136.1 103.8-216 130.9-44.6 15.1-87.6 24.3-137.4 29.1-25 2.5-78 2.5-103 0-49.8-4.8-92.8-14-137.4-29.1-47.6-16.2-99.6-42-139.6-69.2-63.6-43.4-117.8-97.9-159.5-160.3-28.8-43.1-54.3-95.9-70.4-145.7C34.1 673.2 46.4 514.5 116 376.5c6.9-13.8 16.1-30.9 20.5-38 59.4-98.2 142.4-174.5 244-224.5C454.3 77.7 528.3 58.5 613 53.6c13.8-.8 63.3.4 79 1.9z"/><path d="M615 353.4v211.3l-5.2 2.2c-31.8 13.2-51.7 45.5-49.4 80.1l.6 9.5-109.2 63.1c-76.5 44.1-109.3 63.5-109.2 64.7.1 1.1 22 40 23.9 42.5.1.1 49.6-28.3 110-63.2l109.8-63.4 5.1 4c6.7 5.2 21.4 12.2 30.1 14.4 9.3 2.4 27.4 2.4 37 .1 11.6-2.9 26.3-10.8 34.9-18.8 8.9-8.3 13.3-14.1 18.1-23.7 17.9-36.2 5.9-80-28-102.1-4-2.6-9.8-5.8-12.9-7l-5.6-2.3V142h-50v211.4z"/></g></svg>