<svg version="1.0" xmlns="http://www.w3.org/2000/svg" width="1706.667" height="1065.333" viewBox="0 0 1280 799"><path d="M287.8 35.2l-.3 35.2-10.5 3.1c-18.1 5.4-30.9 10.6-49.4 19.8l-17.8 8.9-24.9-24.8L160 52.5 106.5 106 53 159.5l24.8 25 24.8 25-9.1 18c-9.1 18-16.4 36.2-20.6 51.4l-2.2 8.1H0v152h35.5c31 0 35.5.2 35.5 1.5 0 2.6 9.5 30.4 14 41 2.3 5.5 7.2 15.7 10.8 22.8l6.7 12.7-24.8 24.8L53 566.5l53.5 53.5 53.5 53.5 24.8-24.8 24.9-24.9 11.4 6.1c19.4 10.2 37 17.1 65.7 25.7.9.3 1.2 8.2 1.2 35.4v35h151l.2-35.2.3-35.1 10.5-3.3c18.4-5.6 30-10.3 48.8-19.6l18.4-9.1 24.6 24.6 24.7 24.7 53.5-53.5 53.5-53.5-24.8-24.8-24.8-24.8 5.2-9.4c9.3-17.1 18.5-39.5 24.4-59.2l2.6-8.8 35.2-.2 35.2-.3v-151l-35-.3-35-.3-5.8-17.7c-6-18.4-14.1-37.3-22.1-51.4l-4.7-8.2 24.8-24.8 24.8-24.8-53.5-53.5L566.5 53l-24.7 24.7-24.6 24.6-15.9-8c-16.9-8.6-39.3-17.6-53.5-21.4l-8.8-2.4V0H288l-.2 35.2zm91 175.9c60.6 6.5 110.7 46.8 129.6 104 4.5 13.7 8.1 42.3 7.3 57.9-1.7 32.4-15 64.6-37.4 90.5-35 40.5-90.7 59.7-143.4 49.5-31.4-6-56.3-19.4-79.5-42.5-17.7-17.6-29.4-36.4-36.9-58.9-15.3-46-8.7-93.5 18.6-134.6 8.1-12.3 28.1-32.4 40.1-40.3 30.5-20.3 66.7-29.4 101.6-25.6zm764 38.6l-.3 10.7-7.7 2.7c-4.3 1.5-9.7 3.8-12.2 5.2l-4.4 2.4-7.8-7.8-7.9-7.9-16.2 16.2c-9 9-16.3 16.7-16.3 17.3 0 .6 3.3 4.4 7.4 8.4l7.5 7.4-2.4 4.1c-1.3 2.3-3.5 7.6-5 11.8l-2.8 7.8H1053v48h21.7l1.2 4.2c.7 2.4 2.9 7.8 4.9 12.1l3.5 7.8-7.1 7.2c-4 4-7.2 7.7-7.2 8.2 0 .5 7.3 8.3 16.2 17.2l16.3 16.3 7.7-7.7 7.7-7.7 7.9 3.7c4.3 2.1 9.8 4.3 12.3 5l4.4 1.3.3 11.2.3 11.2h46.8l.3-11.1.3-11.1 7.5-2.8c4.1-1.5 9.5-3.7 11.9-4.9l4.4-2.3 7.8 7.8 7.9 7.9 16.7-16.8 16.8-16.7-7.9-7.9-7.8-7.8 2.8-5.4c1.5-3 3.8-8.3 5-11.9l2.3-6.5 11.1-.3 11-.3v-47.8l-11-.3-11.1-.3-2.3-6.5c-1.2-3.6-3.5-8.9-5-11.9l-2.8-5.4 7.6-7.6 7.6-7.6-16.5-16.5-16.5-16.5-7.3 7.3c-4 3.9-7.6 7.2-8.1 7.2s-3.6-1.3-7-2.9c-3.4-1.6-8.7-3.7-11.8-4.7l-5.8-1.8V239h-46.9l-.3 10.7zm38.9 57.4c8.1 2.8 13.1 6 19 12.1 25.3 26.9 12.7 69.9-23.2 79.3-21.4 5.5-44.4-5.5-54.2-26.1-3.4-7.1-3.8-8.9-4.1-17.7-.3-6 .1-11.6.8-14.5 7.2-26.7 35.7-42.1 61.7-33.1zm-344.2 97c-20.8 8.2-38.1 15.2-38.4 15.4-.2.3 2.8 8.7 6.7 18.7 4 9.9 7.1 18.2 7 18.3-4 2.4-17.9 14.9-25 22.4l-9.3 10-17-7.4c-9.3-4.1-17.5-7.5-18.1-7.5-.9 0-35 76.8-34.2 77.4.1.2 8.2 3.7 17.8 7.9l17.5 7.6-.5 5.8c-.3 3.2-.5 13.9-.5 23.9v18.1l-17.7 6.9c-9.8 3.8-17.8 7.3-17.8 7.9 0 .8 29.8 77.4 30.5 78.2.1.2 8-2.9 17.5-6.7 9.6-3.9 17.9-7 18.6-7 .6 0 3.1 2.6 5.6 5.7 5.7 7.2 14.6 16.4 22.1 23l5.8 5-7.7 17.7c-4.4 10.1-7.3 18-6.8 18.5.5.4 7.2 3.5 14.9 6.8 7.7 3.4 24.5 10.6 37.3 16.2 12.8 5.6 23.6 10.1 24.1 10.1.4 0 4.1-7.8 8.3-17.2l7.5-17.3h48l6.8 17.5c3.7 9.6 7.1 17.8 7.4 18.2.3.3 4.9-1.1 10.1-3.1 5.2-2.1 22.9-9.1 39.3-15.5 18.7-7.4 29.7-12.2 29.4-12.9-5.1-12.4-13.9-35.8-13.6-36 7.6-5.2 23.8-20.5 31.1-29.4l2.6-3.2 17.8 7.9c9.9 4.3 18.2 7.5 18.5 7.2.7-.8 32.6-74 33.1-76 .2-.9-5.8-4-17.5-9l-17.9-7.7.8-5c.4-2.8.8-13.5.8-24l.1-18.9 17-6.8c9.4-3.6 17.4-6.8 17.9-7 1.1-.5-29.6-78.8-30.9-78.8-.5 0-8.3 2.9-17.3 6.5-8.9 3.5-16.8 6.5-17.5 6.7-.8.2-4.8-3.8-8.9-8.8-4.2-5-11.4-12.4-16-16.4-4.5-4.1-8.4-7.7-8.6-8.1-.2-.5 3.1-8.8 7.3-18.4 4.2-9.7 7.5-17.8 7.3-18-.2-.1-17.6-7.7-38.7-16.9-29.2-12.7-38.6-16.4-39.2-15.4-.5.7-4.1 8.9-8.1 18.1l-7.3 16.8-3-.7c-1.6-.4-12.4-.8-23.8-.9l-20.9-.2-7-17.6c-3.8-9.8-7.5-17.7-8.1-17.6-.7 0-18.3 6.7-39.2 15zm91.6 105.5c17.4 3.3 31.2 10.7 44.4 23.9 10.1 10.2 16.1 19.7 20.6 32.8 5.9 17.2 6.1 33 .7 51-5 16.7-11 26.8-22.4 37.8-8.4 8-14.3 12.1-23.7 16.4-24.3 11.2-51.3 10.5-75.8-2.1-27.8-14.4-45.9-44-45.9-75.3 0-22.7 8.2-42.9 23.8-59.3 20.6-21.6 49.1-30.7 78.3-25.2z" fill="#fff"/></svg>